<svg width="28" height="26" viewBox="0 0 28 26" fill="none" xmlns="http://www.w3.org/2000/svg">
<path fill-rule="evenodd" clip-rule="evenodd" d="M14.4933 17.3333C15.4133 17.3333 16.0266 16.4133 15.6933 15.5733L10.0266 1.16C9.74664 0.453333 9.07998 0 8.33331 0C7.58664 0 6.91997 0.453333 6.63997 1.16L0.973308 15.5733C0.639974 16.4133 1.26664 17.3333 2.17331 17.3333C2.70664 17.3333 3.18664 17 3.38664 16.4933L4.55997 13.3333H12.08L13.28 16.5067C13.48 17 13.96 17.3333 14.4933 17.3333ZM5.57331 10.6667L8.33331 3.30667L11.0933 10.6667H5.57331ZM24.8533 12.3867L15 22.24L11.04 18.28C10.52 17.76 9.67997 17.76 9.15998 18.28C8.63997 18.8 8.63997 19.64 9.15998 20.16L14.0666 25.0667C14.5866 25.5867 15.4266 25.5867 15.9466 25.0667L26.72 14.28C27.24 13.76 27.24 12.92 26.72 12.4C26.2133 11.88 25.36 11.88 24.8533 12.3867Z" fill="#22262A"/>
</svg>
